<svg xmlns="http://www.w3.org/2000/svg" version="1.1" viewBox="-5.0 -10.0 110.0 135.0">
 <path d="m66.965 57.77c0 0.63281-0.51172 1.1445-1.1445 1.1445-0.63281 0-1.1445-0.51172-1.1445-1.1445v-1.9844h-3.1367c-0.56641 0-1.0391-0.41406-1.1289-0.95703-0.11719-0.44141-0.26953-0.88672-0.45312-1.3281-0.19531-0.46875-0.41797-0.91797-0.67578-1.3477-0.26953-0.45703-0.18359-1.0273 0.17578-1.3867l2.2188-2.2188-2.6016-2.6016-2.2188 2.2188c-0.39453 0.39453-1 0.44141-1.4453 0.14063-0.41406-0.24219-0.84766-0.45703-1.293-0.64063-0.47266-0.19531-0.94531-0.35547-1.4219-0.47656-0.51562-0.13281-0.85547-0.59375-0.85547-1.1016h-0.003906v-3.1367h-3.6797v3.1367c0 0.56641-0.41406 1.0391-0.95703 1.1289-0.44141 0.11719-0.88672 0.26953-1.3242 0.45312-0.46875 0.19531-0.91797 0.41797-1.3477 0.67578-0.45703 0.26953-1.0273 0.18359-1.3867-0.17578l-2.2188-2.2188-2.6016 2.6016 2.2188 2.2188c0.39453 0.39453 0.44141 1 0.14063 1.4453-0.24219 0.41406-0.45703 0.84766-0.64063 1.293-0.19531 0.47266-0.35547 0.94922-0.48047 1.4219-0.13281 0.51562-0.59375 0.85547-1.1016 0.85547v0.003906h-3.1367v3.6797h3.1367c0.56641 0 1.0391 0.41406 1.1289 0.95703 0.11719 0.44141 0.26953 0.88672 0.45312 1.3281 0.19531 0.46875 0.41797 0.91797 0.67578 1.3477 0.26953 0.45703 0.18359 1.0273-0.17578 1.3867l-2.2188 2.2188 2.6016 2.6016 2.2188-2.2188c0.39453-0.39453 1-0.44141 1.4453-0.14062 0.41406 0.24219 0.84766 0.45703 1.293 0.64062 0.47266 0.19531 0.94531 0.35547 1.4219 0.48047 0.51562 0.13281 0.85547 0.59375 0.85547 1.1016h0.003906v3.1367h1.9883c0.63281 0 1.1445 0.51172 1.1445 1.1445s-0.51172 1.1445-1.1445 1.1445h-3.1289c-0.63281 0-1.1445-0.51172-1.1445-1.1445v-3.4297c-0.30078-0.097657-0.58984-0.20703-0.87109-0.32422-0.28906-0.11719-0.57031-0.25-0.84766-0.38672l-2.4219 2.4219c-0.44531 0.44531-1.1719 0.44531-1.6172 0l-4.2188-4.2188c-0.44531-0.44531-0.44531-1.1719 0-1.6172l2.4258-2.4258c-0.13672-0.27734-0.26953-0.55859-0.38672-0.84766-0.11719-0.28125-0.22656-0.57422-0.32422-0.875l-3.4375 0.003906c-0.63281 0-1.1445-0.51172-1.1445-1.1445v-5.9648c0-0.63281 0.51172-1.1445 1.1445-1.1445h3.4297c0.097656-0.30078 0.20703-0.58984 0.32422-0.87109 0.12109-0.28906 0.25-0.57031 0.38672-0.84766l-2.4258-2.4219c-0.44531-0.44531-0.44531-1.168 0-1.6172l4.2188-4.2188c0.44531-0.44531 1.168-0.44531 1.6172 0l2.4219 2.4219c0.27734-0.13672 0.55859-0.26953 0.84766-0.38672 0.28125-0.11719 0.57422-0.22656 0.87109-0.32422v-3.4297c0-0.63281 0.51172-1.1445 1.1445-1.1445h5.9648c0.63281 0 1.1445 0.51172 1.1445 1.1445v3.4297c0.30078 0.097656 0.58984 0.20703 0.87109 0.32422 0.28906 0.12109 0.57031 0.25 0.84766 0.38672l2.4219-2.4258c0.44531-0.44531 1.1719-0.44531 1.6172 0l4.2188 4.2188c0.44531 0.44531 0.44531 1.168 0 1.6172l-2.4258 2.4258c0.13672 0.27734 0.26953 0.55859 0.38672 0.84766 0.11719 0.28125 0.22656 0.57422 0.32422 0.87109h3.4297c0.63281 0 1.1445 0.51172 1.1445 1.1445zm-10.258 9.3164 3.6406 3.6406 2.7578-2.7578-3.6406-3.6406c-0.44531-0.44531-0.44531-1.1719 0-1.6172l1.1719-1.1719-9.0508-2.3359 2.3359 9.0508 1.1719-1.1719c0.44141-0.44141 1.1641-0.44141 1.6133 0.003907zm2.832 6.0664c0.44531 0.44531 1.168 0.44531 1.6172 0l4.375-4.375c0.44531-0.44531 0.44531-1.1719 0-1.6172l-3.6406-3.6406 1.7734-1.7734c0.44531-0.44531 0.44531-1.1719 0-1.6172-0.17578-0.17578-0.39453-0.28516-0.625-0.32031l-12.758-3.2891c-0.60938-0.15625-1.2305 0.21094-1.3828 0.82031-0.050782 0.19922-0.046876 0.39844 0.003906 0.58203l3.3086 12.836c0.15625 0.60938 0.77344 0.97656 1.3828 0.82031 0.20703-0.050781 0.38281-0.16016 0.52344-0.29688l0.003906 0.003906 1.7734-1.7734zm-21.723-47.52c-0.63281 0-1.1445-0.51172-1.1445-1.1445 0-0.63281 0.51172-1.1445 1.1445-1.1445h50.039c0.63281 0 1.1445 0.51172 1.1445 1.1445 0 0.63281-0.51172 1.1445-1.1445 1.1445zm-7.875-4.7852c1.0078 0 1.918 0.41016 2.5742 1.0664 0.66016 0.66016 1.0664 1.5703 1.0664 2.5742 0 1.0078-0.40625 1.918-1.0664 2.5742-0.66016 0.66016-1.5703 1.0664-2.5742 1.0664-1.0078 0-1.918-0.41016-2.5742-1.0664-0.66016-0.66016-1.0664-1.5703-1.0664-2.5742 0-1.0078 0.41016-1.918 1.0664-2.5742 0.65625-0.66016 1.5664-1.0664 2.5742-1.0664zm0.95703 2.6797c-0.24609-0.24609-0.58594-0.39844-0.96094-0.39844s-0.71484 0.15234-0.96094 0.39844c-0.24609 0.24609-0.39844 0.58594-0.39844 0.96094s0.15234 0.71484 0.39844 0.96094c0.24609 0.24609 0.58594 0.39844 0.96094 0.39844s0.71484-0.15234 0.96094-0.39844c0.24609-0.24609 0.39844-0.58594 0.39844-0.96094s-0.15234-0.71484-0.39844-0.96094zm-9.7852-2.6797c1.0078 0 1.918 0.41016 2.5742 1.0664 0.66016 0.66016 1.0664 1.5703 1.0664 2.5742 0 1.0078-0.41016 1.918-1.0664 2.5742-0.66016 0.66016-1.5703 1.0664-2.5742 1.0664-1.0078 0-1.918-0.41016-2.5742-1.0664-0.66016-0.66016-1.0664-1.5703-1.0664-2.5742 0-1.0078 0.41016-1.918 1.0664-2.5742 0.65625-0.66016 1.5664-1.0664 2.5742-1.0664zm0.95703 2.6797c-0.24609-0.24609-0.58594-0.39844-0.96094-0.39844s-0.71484 0.15234-0.96094 0.39844c-0.24609 0.24609-0.39844 0.58594-0.39844 0.96094s0.15234 0.71484 0.39844 0.96094c0.24609 0.24609 0.58594 0.39844 0.96094 0.39844s0.71484-0.15234 0.96094-0.39844c0.24609-0.24609 0.39844-0.58594 0.39844-0.96094s-0.15234-0.71484-0.39844-0.96094zm-9.7852-2.6797c1.0078 0 1.918 0.41016 2.5742 1.0664 0.66016 0.66016 1.0664 1.5703 1.0664 2.5742 0 1.0078-0.41016 1.918-1.0664 2.5742-0.66016 0.66016-1.5703 1.0664-2.5742 1.0664-1.0078 0-1.918-0.41016-2.5781-1.0664-0.66016-0.66016-1.0664-1.5703-1.0664-2.5742 0-1.0039 0.40625-1.918 1.0664-2.5742 0.66016-0.66016 1.5703-1.0664 2.5781-1.0664zm0.96094 2.6797c-0.24609-0.24609-0.58594-0.39844-0.96094-0.39844s-0.71484 0.15234-0.96094 0.39844c-0.24609 0.24609-0.39844 0.58594-0.39844 0.96094s0.15234 0.71484 0.39844 0.96094c0.24609 0.24609 0.58594 0.39844 0.96094 0.39844s0.71484-0.15234 0.96094-0.39844c0.24609-0.24609 0.39844-0.58594 0.39844-0.96094s-0.15234-0.71484-0.39844-0.96094zm-2.8164-8.2383c-2.0117 0-3.8359 0.82031-5.1602 2.1445-1.3242 1.3242-2.1445 3.1523-2.1445 5.1602v54.809c0 2.0117 0.82031 3.8359 2.1445 5.1602s3.1484 2.1445 5.1602 2.1445h79.141c2.0078 0 3.8359-0.82031 5.1602-2.1445s2.1445-3.1484 2.1445-5.1602v-54.809c0-2.0117-0.82031-3.8359-2.1445-5.1602-1.3242-1.3242-3.1484-2.1445-5.1602-2.1445zm79.141 2.2891h-79.141c-1.3789 0-2.6328 0.56641-3.543 1.4766-0.91016 0.91016-1.4766 2.1641-1.4766 3.543v9.3633l76.977-0.003907c0.63281 0 1.1445 0.51172 1.1445 1.1445 0 0.63281-0.51172 1.1445-1.1445 1.1445h-76.977v43.16c0 1.3789 0.56641 2.6328 1.4766 3.543 0.91016 0.91016 2.1641 1.4766 3.543 1.4766h79.141c1.3789 0 2.6328-0.56641 3.543-1.4766 0.91016-0.91016 1.4766-2.1641 1.4766-3.543l-0.003906-43.16h-7.6758c-0.63281 0-1.1445-0.51172-1.1445-1.1445 0-0.63281 0.51172-1.1445 1.1445-1.1445h7.6758v-9.3633c0-1.3789-0.56641-2.6328-1.4766-3.543-0.90625-0.91016-2.1602-1.4727-3.5391-1.4727zm-33.164 37.008c-0.57812-1.2148-1.4922-2.2422-2.625-2.9609-1.0977-0.69531-2.3945-1.0938-3.7812-1.0938-1.957 0-3.7305 0.79297-5.0117 2.0781-1.2852 1.2852-2.0781 3.0547-2.0781 5.0117 0 1.3867 0.40234 2.6836 1.0938 3.7812 0.71484 1.1328 1.7422 2.0469 2.9609 2.625 0.57031 0.26953 1.25 0.023437 1.5195-0.54297 0.26953-0.57031 0.023437-1.25-0.54297-1.5195-0.82422-0.39062-1.5195-1.0117-2.0039-1.7773-0.46875-0.73828-0.73828-1.6211-0.73828-2.5664 0-1.3242 0.53906-2.5273 1.4062-3.3945 0.86719-0.87109 2.0703-1.4062 3.3945-1.4062 0.94531 0 1.8281 0.26953 2.5664 0.73828 0.76562 0.48438 1.3828 1.1797 1.7773 2.0039 0.26953 0.57031 0.94922 0.8125 1.5195 0.54297 0.56641-0.26953 0.8125-0.94922 0.54297-1.5195z" fill-rule="evenodd"/>
<text x="0.0" y="117.5" font-size="5.0" font-weight="bold" font-family="Arbeit Regular, Helvetica, Arial-Unicode, Arial, Sans-serif" fill="#000000">Created by Alhaliza Risma Elvariani</text><text x="0.0" y="122.5" font-size="5.0" font-weight="bold" font-family="Arbeit Regular, Helvetica, Arial-Unicode, Arial, Sans-serif" fill="#000000">from Noun Project</text></svg>