<svg xmlns="http://www.w3.org/2000/svg">
  <defs>
    <symbol id="icon-easy-to-use" viewBox="-5.0 -10.0 110.0 135.0">
      <svg xmlns="http://www.w3.org/2000/svg" version="1.1" viewBox="-5.0 -10.0 110.0 135.0">
        <path d="m44.5 19.25v-12.984c0-0.85938 0.70312-1.5625 1.5625-1.5625s1.5625 0.70312 1.5625 1.5625v12.984c0 0.85938-0.70312 1.5625-1.5625 1.5625s-1.5625-0.70312-1.5625-1.5625zm8.7344 1.5625c0.40625 0 0.79688-0.15625 1.1094-0.45312l4.0469-4.0469c0.60938-0.60938 0.60938-1.5938 0-2.2031s-1.5938-0.60938-2.2031 0l-4.0469 4.0469c-0.60938 0.60938-0.60938 1.5938 0 2.2031 0.3125 0.3125 0.70312 0.45312 1.1094 0.45312zm-15.469-0.45312c0.3125 0.3125 0.70312 0.45312 1.1094 0.45312s0.79688-0.15625 1.1094-0.45312c0.60938-0.60938 0.60938-1.5938 0-2.2031l-4.0469-4.0469c-0.60938-0.60938-1.5938-0.60938-2.2031 0s-0.60938 1.5938 0 2.2031l4.0469 4.0469zm47.516 34.391c0 1.7031-0.65625 3.3125-1.8594 4.5156l-14.188 14.188c-0.21875 0.26562-6.9688 7.875-13.984 6.5469l-4.2031 4.2031c1.4375 1.6406 1.4062 4.1406-0.17188 5.7031l-4.1719 4.1719c-0.8125 0.8125-1.8906 1.2188-2.9531 1.2188s-2.1406-0.40625-2.9531-1.2188l-24.844-24.844c-1.625-1.625-1.625-4.2812 0-5.9219l4.1719-4.1719c1.4844-1.4844 3.7969-1.5938 5.4375-0.39062l6.9688-6.9688-0.14062-21.188c0-1.0312 0.15625-1.9062 0.5-2.6875 1.6094-3.625 5.2812-3.8125 5.4375-3.8281 1.6719-0.09375 3.2344 0.45312 4.4688 1.5312 1.3594 1.1875 2.1875 2.9844 2.2656 4.9219l0.29688 6.6406 19.922-19.938c1.2031-1.2031 2.7969-1.8594 4.5156-1.8594s3.3125 0.65625 4.5156 1.8594l0.14062 0.14062c1.2031 1.2031 1.8594 2.7969 1.8594 4.5156s-0.65625 3.3125-1.8594 4.5156l-8.0625 8.0625c1.1094 0.28125 2.1094 0.84375 2.9375 1.6719l0.14062 0.14062c1.2031 1.2031 1.8594 2.7969 1.8594 4.5156 0 0.15625 0 0.29688-0.015625 0.45312 1.7969-0.125 3.6094 0.48438 4.9688 1.8438l0.14062 0.14062c1.3594 1.3594 1.9844 3.1875 1.8438 4.9688 1.8438-0.14062 3.6562 0.53125 4.9688 1.8438l0.14062 0.14062c1.2031 1.2031 1.8594 2.7969 1.8594 4.5156zm-36.609 31.453-24.844-24.844c-0.40625-0.40625-1.0781-0.40625-1.5 0l-4.1719 4.1719c-0.40625 0.40625-0.40625 1.0781 0 1.5l24.844 24.844c0.40625 0.40625 1.0781 0.40625 1.5 0l4.1719-4.1719c0.40625-0.40625 0.40625-1.0781 0-1.5zm33.484-31.453c0-0.875-0.34375-1.6875-0.95312-2.2969l-0.14062-0.14062c-1.2188-1.2188-3.3906-1.2188-4.6094 0l-3.8906 3.9062c-0.60938 0.60938-1.5938 0.60938-2.2031 0-0.3125-0.3125-0.45312-0.70312-0.45312-1.1094s0.15625-0.79688 0.45312-1.1094l3.8906-3.9062c1.2656-1.2656 1.2656-3.3438 0-4.6094l-0.14062-0.14062c-1.2656-1.2656-3.3438-1.2656-4.6094 0l-3.9062 3.9062c-0.60938 0.60938-1.5938 0.60938-2.2031 0-0.3125-0.3125-0.45312-0.70312-0.45312-1.1094s0.15625-0.79688 0.45312-1.1094l3.9062-3.9062c0.60938-0.60938 0.95312-1.4375 0.95312-2.2969s-0.34375-1.6875-0.95312-2.2969l-0.14062-0.14062c-1.2188-1.2188-3.3906-1.2188-4.6094 0l-3.9062 3.9062c-0.60938 0.60938-1.5938 0.60938-2.2031 0s-0.60938-1.5938 0-2.2031l15.844-15.844c0.60938-0.60938 0.95312-1.4375 0.95312-2.2969s-0.34375-1.6875-0.95312-2.2969l-0.14062-0.14062c-1.2188-1.2188-3.3906-1.2188-4.6094 0l-20.609 20.625c-0.75 0.75-1.8906 0.98438-2.875 0.60938-1-0.39062-1.6719-1.3281-1.7188-2.3906l-0.32812-7.6094c-0.046875-1.0938-0.48438-2.0781-1.2031-2.7188-0.64062-0.5625-1.3906-0.8125-2.2656-0.76562-0.0625 0-1.9062 0.14062-2.7188 1.9688-0.15625 0.35938-0.23438 0.82812-0.23438 1.4062l0.15625 21.844c0 0.42188-0.15625 0.8125-0.45312 1.1094l-7.3906 7.3906 21.047 21.047 4.8125-4.8125c0.40625-0.40625 1.0156-0.5625 1.5625-0.39062 4.5 1.3906 9.9844-3.4688 11.719-5.4531l14.25-14.266c0.60938-0.60938 0.95312-1.4375 0.95312-2.2969z"/>
      </svg>
    </symbol>
    <!-- Icons go here -->
  </defs>
</svg>